<?xml version="1.0" standalone="no"?>
<!DOCTYPE svg PUBLIC "-//W3C//DTD SVG 20010904//EN"
 "http://www.w3.org/TR/2001/REC-SVG-20010904/DTD/svg10.dtd">
<svg version="1.0" xmlns="http://www.w3.org/2000/svg"
 width="610.000000pt" height="610.000000pt" viewBox="0 0 610.000000 610.000000"
 preserveAspectRatio="xMidYMid meet">
<metadata>
Created by potrace 1.11, written by Peter Selinger 2001-2013
</metadata>
<g transform="translate(0.000000,610.000000) scale(0.100000,-0.100000)"
fill="#000000" stroke="none">
<path d="M3732 5849 c52 -23 63 -41 47 -71 -7 -13 -8 -23 -1 -30 13 -13 188
-6 202 8 41 41 -73 93 -235 109 l-60 6 47 -22z"/>
<path d="M3780 5590 c-31 -7 -29 -8 23 -9 32 0 57 3 57 9 0 11 -27 11 -80 0z"/>
<path d="M3970 5531 c-97 -36 -230 -98 -230 -107 0 -3 47 -3 105 1 111 7 113
6 96 -38 -9 -22 -16 -25 -98 -31 -204 -15 -202 -15 -218 -54 -19 -44 -46 -145
-40 -150 2 -2 74 1 160 8 108 8 160 9 167 2 15 -15 -8 -137 -34 -183 -34 -61
-88 -75 -134 -36 -22 19 -28 34 -32 80 l-4 57 -78 0 -77 0 -22 -72 c-12 -40
-28 -95 -36 -122 -11 -35 -11 -46 -2 -39 6 5 31 24 54 42 31 23 44 29 47 19 3
-7 10 -30 16 -51 32 -102 131 -152 225 -113 l35 15 0 -40 c0 -49 -20 -59 -116
-59 -36 0 -64 -3 -62 -7 73 -143 76 -286 9 -429 -28 -59 -100 -144 -149 -175
l-23 -14 44 -31 c88 -62 118 -180 83 -326 -7 -32 -12 -59 -9 -61 2 -2 26 -2
53 1 48 4 50 4 50 -21 0 -39 -23 -49 -122 -55 l-91 -5 22 32 c33 46 61 133 61
189 0 179 -147 270 -307 188 -139 -71 -208 -257 -148 -403 13 -30 12 -32 -15
-41 -26 -10 -28 -15 -35 -82 -5 -48 -4 -75 4 -83 10 -10 203 1 534 30 63 6 67
5 67 -15 0 -11 -4 -23 -9 -26 -12 -7 -652 -58 -658 -52 -3 3 0 44 6 91 7 48
10 89 7 92 -2 3 -17 -37 -33 -88 -31 -99 -39 -108 -142 -154 -19 -8 -31 -19
-27 -23 4 -4 -16 -12 -46 -18 -51 -11 -49 -12 67 -14 93 -1 129 -6 160 -20
l40 -19 -67 0 c-37 -1 -69 3 -72 8 -20 32 -205 15 -297 -29 -37 -17 -91 -33
-120 -36 l-54 -6 30 25 30 25 -75 -14 c-130 -26 -173 -32 -243 -39 -56 -6 -70
-11 -83 -30 -11 -18 -28 -26 -62 -30 -26 -4 -60 -9 -77 -12 -25 -5 -28 -3 -17
9 18 22 6 27 -57 21 l-58 -6 -7 364 c-4 200 -10 366 -12 368 -5 5 -199 -53
-251 -74 -31 -13 -33 -17 -33 -65 0 -62 14 -63 48 -2 31 56 55 69 89 47 22
-15 26 -15 42 -1 20 18 61 22 61 6 0 -17 -37 -85 -55 -100 -13 -11 -20 -9 -43
13 -32 31 -52 35 -52 11 0 -9 22 -90 50 -180 28 -90 50 -180 50 -200 0 -20 9
-51 19 -68 11 -17 25 -50 32 -73 9 -31 17 -43 31 -43 14 0 19 -6 16 -22 -3
-20 -11 -24 -63 -30 -67 -9 -188 -1 -180 12 7 11 -32 20 -91 20 -36 0 -57 6
-74 20 -13 11 -30 20 -39 20 -14 0 -14 -2 -1 -10 11 -8 7 -9 -15 -4 -58 12
-140 36 -165 49 -63 32 -279 54 -374 37 -38 -7 -38 -7 -20 -28 11 -12 62 -58
114 -102 52 -44 102 -89 111 -100 13 -15 40 -22 133 -32 109 -12 116 -14 101
-30 -19 -21 -20 -98 -2 -119 9 -10 20 -86 31 -211 10 -107 20 -198 22 -202 10
-15 24 -8 24 11 0 11 4 22 9 26 6 3 13 25 16 50 4 24 18 59 31 76 31 42 30 63
-1 77 -34 16 -41 54 -21 120 11 32 15 67 12 87 -4 21 -1 42 10 61 16 29 16 29
9 -23 -5 -47 -4 -53 13 -53 10 0 23 5 30 12 6 6 15 8 19 4 13 -12 -13 -41 -40
-44 -37 -5 -65 -78 -47 -122 7 -16 16 -30 21 -30 12 0 11 37 -1 45 -14 8 -13
42 1 51 7 4 20 -4 30 -17 15 -20 17 -35 12 -83 -5 -50 -3 -61 12 -72 17 -12
16 -14 -9 -25 -19 -9 -26 -20 -26 -41 0 -17 -4 -27 -10 -23 -5 3 -10 -2 -10
-12 -1 -10 -8 -29 -16 -43 -8 -14 -13 -17 -10 -7 3 9 2 17 -2 17 -10 0 -43
-81 -36 -91 12 -21 20 -12 59 69 8 18 22 35 30 38 21 8 55 -14 55 -37 0 -25
17 -59 30 -59 4 0 23 12 40 26 17 15 32 25 34 23 2 -2 9 -14 15 -26 17 -33 35
-29 26 5 -12 51 -27 56 -70 22 -77 -61 -79 -11 -7 140 74 156 112 246 112 268
0 11 -17 42 -38 69 -37 45 -53 58 -112 80 -20 8 -12 11 48 16 64 5 76 10 101
36 25 27 32 29 61 21 55 -16 62 -26 44 -68 -8 -21 -28 -54 -45 -75 -17 -20
-37 -62 -44 -92 -8 -30 -49 -126 -91 -214 -85 -180 -91 -210 -30 -162 22 18
46 30 55 29 17 -3 45 -82 37 -103 -7 -20 -35 -19 -58 2 -14 13 -21 14 -30 5
-14 -14 -57 -16 -76 -3 -8 5 -17 23 -21 41 -9 48 -23 46 -51 -6 -23 -44 -23
-47 -6 -59 26 -20 175 -57 231 -59 l50 -1 63 315 c34 172 64 316 67 318 5 5
493 -43 698 -68 167 -21 300 -46 329 -61 23 -12 24 -15 53 -274 14 -126 35
-265 45 -307 19 -73 48 -331 140 -1243 22 -220 43 -417 46 -438 l6 -37 77 0
c43 0 81 3 84 6 3 4 0 16 -8 27 -10 14 -13 33 -9 59 7 40 -8 52 -34 26 -10
-10 -15 -10 -22 2 -10 16 -13 40 -5 40 7 0 274 -78 321 -94 l42 -14 6 29 c8
42 43 369 131 1209 41 399 82 787 90 863 8 75 15 142 15 147 0 6 29 10 65 10
51 0 69 -4 85 -20 22 -22 94 -162 116 -224 13 -35 12 -41 -3 -58 -23 -25 -173
-98 -201 -98 -26 0 -29 -16 -4 -24 64 -20 226 -39 332 -40 108 0 132 3 173 21
26 12 47 26 47 32 0 23 -43 47 -130 75 -81 26 -96 34 -120 68 -35 48 -87 171
-96 225 l-6 40 132 7 c202 11 246 30 326 142 25 35 52 64 60 64 8 0 14 -2 14
-4 0 -35 41 -185 73 -266 46 -117 61 -140 87 -133 39 10 140 189 140 249 0 22
-7 34 -25 44 -14 7 -25 19 -25 26 0 7 -20 33 -45 57 -25 25 -45 49 -45 53 0 5
30 28 65 52 36 23 65 47 65 52 0 12 8 13 -75 -5 -38 -8 -104 -15 -145 -17 -66
-2 -80 0 -104 20 -53 41 -109 24 -141 -45 l-18 -38 -9 28 c-8 21 -16 27 -37
27 -23 0 -30 -6 -38 -34 -10 -33 -9 -34 21 -43 27 -7 31 -14 34 -46 3 -31 0
-37 -17 -37 -24 0 -51 -36 -51 -67 0 -30 -9 -29 -80 7 -71 36 -82 36 -129 8
l-36 -21 28 29 c27 30 27 32 27 160 0 83 7 162 19 223 l19 95 -30 29 -29 30
-111 -6 -111 -7 7 108 c3 59 22 276 41 482 109 1179 135 1465 141 1563 l7 107
-29 0 c-16 -1 -63 -14 -104 -29z m-509 -1770 c35 -35 38 -84 10 -147 -48 -105
-180 -123 -211 -29 -42 129 113 264 201 176z m419 -480 c0 -11 -25 -21 -53
-21 -19 1 -18 3 8 15 37 16 45 18 45 6z m-520 -91 c36 -5 81 -13 100 -18 l35
-8 -33 -18 c-33 -17 -38 -17 -131 3 -53 12 -111 21 -129 21 -35 0 -42 13 -14
30 17 10 47 9 172 -10z m470 3 c0 -5 -7 -17 -15 -27 -8 -11 -12 -29 -9 -43 4
-13 1 -29 -5 -37 -6 -7 -8 -21 -5 -31 5 -13 3 -16 -7 -13 -8 3 -13 15 -11 29
2 13 3 39 3 58 0 41 14 71 34 71 8 0 15 -3 15 -7z m-60 -42 c0 -29 -24 -70
-35 -60 -8 9 5 59 15 59 5 0 6 10 2 22 -3 14 -2 19 6 14 7 -4 12 -20 12 -35z
m150 14 c7 -8 26 -15 42 -15 43 0 65 -15 78 -55 9 -28 9 -39 -1 -51 -10 -13
-10 -21 5 -48 23 -43 18 -82 -9 -78 -85 10 -129 11 -140 2 -20 -16 -26 3 -13
40 9 28 8 34 -6 42 -18 10 -22 58 -6 58 7 0 9 13 5 33 -7 34 8 87 24 87 4 0
14 -7 21 -15z m-737 -52 c-13 -2 -33 -2 -45 0 -13 2 -3 4 22 4 25 0 35 -2 23
-4z m120 -10 c-7 -2 -21 -2 -30 0 -10 3 -4 5 12 5 17 0 24 -2 18 -5z m344 -49
c7 -19 -21 -44 -49 -44 -27 0 -35 30 -13 46 25 19 54 18 62 -2z m113 -33 c0
-30 6 -44 22 -55 26 -19 15 -35 -12 -18 -18 11 -20 9 -20 -13 0 -14 -5 -25
-11 -25 -6 0 -9 7 -6 15 4 8 2 17 -3 20 -21 13 -3 115 20 115 5 0 10 -18 10
-39z m-1210 10 c0 -22 -37 -38 -52 -23 -17 17 -1 42 27 42 18 0 25 -5 25 -19z
m-40 -81 c22 -11 40 -23 40 -27 0 -3 -20 -3 -43 0 -25 4 -48 2 -54 -4 -13 -13
-37 16 -29 36 8 21 39 19 86 -5z m-599 -10 c10 -6 19 -15 19 -20 0 -17 -34
-11 -60 10 l-25 20 23 0 c13 0 32 -5 43 -10z m1558 -22 c0 -13 -3 -17 -6 -10
-8 19 -23 14 -23 -8 0 -11 -7 -20 -15 -20 -27 0 -15 41 15 53 26 10 30 8 29
-15z m-66 -28 c3 -11 1 -22 -3 -25 -11 -7 -32 30 -23 39 11 11 21 6 26 -14z
m-46 -10 c1 -11 -2 -18 -8 -15 -5 4 -9 -1 -9 -10 0 -10 -7 -15 -17 -14 -10 1
-35 -6 -56 -15 -21 -9 -42 -14 -47 -11 -4 3 -10 0 -12 -6 -2 -7 -9 -5 -17 5
-11 12 -11 16 -1 16 7 0 19 8 26 18 11 14 15 14 22 4 8 -11 10 -11 15 2 4 9
14 16 24 16 10 0 29 7 43 14 34 19 36 19 37 -4z m1103 -16 c0 -14 -4 -22 -10
-19 -5 3 -10 17 -10 31 0 14 4 22 10 19 6 -3 10 -17 10 -31z m-2843 -160 c-3
-3 -12 -4 -19 -1 -8 3 -5 6 6 6 11 1 17 -2 13 -5z m-122 -34 c-20 -22 -40 -26
-51 -8 -5 7 -2 9 9 5 8 -3 21 1 27 9 7 8 17 14 23 14 5 0 2 -9 -8 -20z m2150
-10 c0 -23 -4 -25 -45 -27 -124 -7 -555 -35 -557 -36 -5 -6 -33 -347 -33 -410
0 -42 -4 -78 -9 -81 -25 -16 -31 344 -8 464 l12 65 45 8 c52 10 520 45 565 43
25 -1 30 -5 30 -26z m-18 -301 c-7 -91 -21 -120 -67 -139 -60 -25 -100 16
-100 101 l0 39 -48 0 c-65 0 -79 -14 -84 -80 -10 -130 -98 -201 -165 -134 -24
25 -25 28 -21 134 2 60 8 114 13 119 9 8 310 36 434 40 l44 1 -6 -81z m-184
-310 c37 -27 49 -30 97 -27 50 3 55 1 58 -18 5 -32 -24 -54 -69 -54 -23 0 -42
-5 -44 -12 -2 -7 -16 -143 -30 -303 -14 -159 -28 -312 -31 -338 l-6 -49 56 7
56 7 0 -36 c0 -21 -6 -38 -12 -41 -16 -5 -402 -23 -406 -19 -2 1 -6 20 -9 42
-7 54 6 59 150 68 l116 7 6 56 c3 31 8 71 11 90 l5 33 -150 -7 -151 -7 -10 27
c-23 60 -5 156 33 177 12 6 82 16 157 22 l135 11 9 83 c5 45 6 85 3 89 -4 3
-75 1 -158 -5 -128 -9 -156 -14 -180 -31 -15 -12 -31 -21 -34 -21 -9 0 -5 56
5 66 7 7 5 21 -6 42 -8 18 -18 58 -21 89 l-5 58 33 -52 c37 -58 77 -83 132
-83 70 0 120 33 178 118 17 23 32 42 35 42 2 0 23 -14 47 -31z m62 -1106 c-4
-32 -10 -61 -14 -65 -6 -7 -340 -32 -346 -26 -2 2 -7 31 -10 65 l-7 61 83 6
c46 3 100 8 119 9 19 2 68 5 108 5 l73 2 -6 -57z m-25 -287 c0 -26 -7 -29 -73
-41 -23 -4 -44 -2 -52 5 -10 8 -19 8 -34 1 -11 -6 -49 -11 -86 -11 -50 0 -67
4 -72 16 -14 36 43 49 230 52 86 2 87 2 87 -22z"/>
<path d="M3924 3049 c-9 -15 5 -26 43 -34 35 -7 51 8 33 30 -14 17 -66 20 -76
4z"/>
<path d="M3220 2830 c0 -5 5 -10 11 -10 5 0 7 5 4 10 -3 6 -8 10 -11 10 -2 0
-4 -4 -4 -10z"/>
<path d="M3433 4659 c-10 -14 -63 -166 -63 -183 0 -4 11 -5 24 -2 14 3 28 1
31 -4 4 -6 -1 -94 -11 -196 -13 -133 -14 -188 -7 -195 22 -22 123 20 175 72
75 75 101 136 106 252 4 90 2 101 -23 153 -35 72 -85 106 -164 112 -40 3 -60
0 -68 -9z m148 -222 c24 -38 19 -76 -16 -129 -21 -32 -59 -57 -70 -46 -5 4 14
194 21 216 6 19 41 -3 65 -41z"/>
<path d="M3300 4254 c-18 -46 -37 -138 -33 -151 8 -24 20 -13 52 46 36 68 38
91 11 116 -19 17 -20 17 -30 -11z"/>
<path d="M3222 4005 c-7 -14 -12 -28 -12 -30 0 -10 26 -4 44 10 16 12 17 17 6
30 -17 21 -25 19 -38 -10z"/>
<path d="M3145 3830 c-18 -19 -17 -20 3 -20 12 0 22 2 22 4 0 2 3 11 6 20 9
22 -9 20 -31 -4z"/>
<path d="M1740 3610 l-13 -30 -23 26 c-34 35 -66 29 -79 -15 -6 -22 -22 -41
-42 -54 -18 -10 -33 -24 -33 -30 0 -7 -3 -22 -6 -34 -5 -18 -1 -25 22 -33 l28
-11 -24 -12 c-22 -11 -25 -20 -28 -72 -2 -33 -7 -64 -13 -69 -16 -17 -10 -32
23 -65 29 -29 30 -31 10 -31 -16 0 -27 -12 -42 -44 -36 -81 -18 -146 22 -76 9
17 22 30 28 30 13 0 13 -17 0 -25 -19 -11 -10 -23 13 -17 30 7 135 116 143
147 4 15 -3 55 -16 98 -12 40 -28 92 -36 117 -7 25 -21 69 -30 98 -27 89 3
137 56 87 14 -14 31 -25 36 -25 11 0 34 42 34 60 0 21 -18 8 -30 -20z m-70
-420 c0 -13 -28 -25 -38 -16 -3 4 0 11 8 16 20 13 30 12 30 0z"/>
<path d="M1480 3618 c1 -18 60 -85 60 -69 0 18 -39 81 -51 81 -5 0 -9 -6 -9
-12z"/>
<path d="M1446 3533 c-29 -89 -116 -457 -112 -470 12 -30 46 -12 82 42 35 53
36 56 29 120 l-7 66 42 42 c41 40 42 43 30 72 -7 16 -16 59 -21 94 -11 85 -23
94 -43 34z"/>
<path d="M4175 3457 c-118 -41 -185 -68 -185 -76 0 -27 315 -58 445 -44 61 6
115 33 115 57 0 39 -95 74 -218 81 -74 5 -97 2 -157 -18z"/>
<path d="M1472 3300 c-24 -39 -10 -103 19 -85 6 5 4 12 -8 20 -17 12 -17 15 0
49 18 38 10 50 -11 16z"/>
<path d="M4180 3310 c0 -20 48 -34 75 -22 40 18 29 32 -25 32 -27 0 -50 -5
-50 -10z"/>
<path d="M1485 3270 c-3 -5 -1 -10 4 -10 6 0 11 5 11 10 0 6 -2 10 -4 10 -3 0
-8 -4 -11 -10z"/>
<path d="M4541 3234 c0 -11 3 -14 6 -6 3 7 2 16 -1 19 -3 4 -6 -2 -5 -13z"/>
<path d="M4628 3215 c-19 -42 15 -78 58 -61 13 5 13 10 -3 37 -29 50 -41 55
-55 24z"/>
<path d="M1467 3143 c-10 -9 -7 -84 3 -108 7 -16 9 -13 9 16 1 20 4 51 7 68 6
29 -3 40 -19 24z"/>
<path d="M1420 2600 c0 -5 5 -10 10 -10 6 0 10 5 10 10 0 6 -4 10 -10 10 -5 0
-10 -4 -10 -10z"/>
<path d="M4851 2479 c-24 -27 -40 -53 -36 -57 4 -4 17 5 29 20 23 29 59 88 54
88 -2 0 -23 -23 -47 -51z"/>
<path d="M1410 2409 c-6 -11 -10 -27 -8 -35 2 -8 8 1 14 20 12 40 10 46 -6 15z"/>
<path d="M1355 2200 c-3 -5 -1 -10 4 -10 6 0 11 5 11 10 0 6 -2 10 -4 10 -3 0
-8 -4 -11 -10z"/>
<path d="M1375 2083 c-16 -3 -34 -8 -38 -13 -11 -10 301 0 328 11 20 8 -235
10 -290 2z"/>
<path d="M3542 308 c-51 -90 -129 -146 -206 -149 -11 0 -15 -3 -8 -6 7 -3 36
1 64 8 41 9 63 23 103 63 28 28 58 70 67 94 9 23 15 42 13 42 -2 0 -17 -24
-33 -52z"/>
</g>
</svg>
